<svg width="1391" height="1398" viewBox="0 0 1391 1398" fill="none" xmlns="http://www.w3.org/2000/svg">
<path d="M10 1340.87C247.427 864.177 712.464 666.628 722.893 687.488C733.323 708.347 27.1779 1175.22 71.3506 1395.47" stroke="#FCF2EB" stroke-width="21"/>
<path d="M716.425 826.397C743.462 825.722 769.72 817.201 792.003 801.873C814.285 786.545 831.632 765.069 841.931 740.061C852.23 715.053 855.037 687.59 850.011 661.016C844.984 634.441 832.341 609.901 813.621 590.381C794.9 570.861 770.909 557.205 744.568 551.073C718.226 544.941 690.67 546.599 665.254 555.844C639.837 565.09 617.656 581.524 601.411 603.147C585.165 624.77 575.555 650.65 573.751 677.635L630.418 681.424C631.488 665.424 637.185 650.081 646.817 637.261C656.449 624.441 669.599 614.698 684.668 609.216C699.737 603.735 716.074 602.752 731.692 606.388C747.309 610.023 761.533 618.12 772.632 629.692C783.731 641.265 791.227 655.815 794.206 671.57C797.186 687.326 795.522 703.608 789.416 718.435C783.31 733.261 773.026 745.994 759.815 755.081C746.604 764.169 731.036 769.221 715.006 769.621L716.425 826.397Z" stroke="#FCF2EB" stroke-width="16" stroke-linecap="round" stroke-linejoin="round" stroke-dasharray="10 25"/>
<path d="M1060.27 1155.65C1060.27 1155.65 790.171 861.089 849.723 808.529C909.276 755.969 1209.04 999.95 1209.04 999.95" stroke="#FCF2EB" stroke-width="18" stroke-linecap="round" stroke-linejoin="round"/>
<path d="M229.971 373.754C229.971 373.754 536.522 630.165 586.316 568.281C636.11 506.397 378.733 218.058 378.733 218.058M229.444 374.404L586.899 566.884L377.311 217.856" stroke="#FCF2EB" stroke-width="18" stroke-linecap="round" stroke-linejoin="round"/>
<path d="M1058.01 1150.86L845.476 804.95L1205.88 994.308" stroke="#FCF2EB" stroke-width="18" stroke-linecap="round" stroke-linejoin="round"/>
<path d="M618.821 1247.26C618.821 1247.26 636.114 847.985 715.39 852.929C794.665 857.874 834.106 1242.36 834.106 1242.36" stroke="#FCF2EB" stroke-width="18" stroke-linecap="round" stroke-linejoin="round"/>
<path d="M589.544 123.609C589.544 123.609 624.999 521.683 703.967 513.134C782.935 504.585 804.829 118.705 804.829 118.705M588.713 123.696L705.368 512.559L803.966 117.557" stroke="#FCF2EB" stroke-width="18" stroke-linecap="round" stroke-linejoin="round"/>
<path d="M620.611 1242.28L714.917 847.396L835.864 1236.14" stroke="#FCF2EB" stroke-width="18" stroke-linecap="round" stroke-linejoin="round"/>
<path d="M1061.86 229.669C1061.86 229.669 779.2 512.202 836.411 567.302C893.621 622.402 1203.71 391.688 1203.71 391.688M1061.26 229.087L837.751 568.007L1204.04 390.29" stroke="#FCF2EB" stroke-width="18" stroke-linecap="round" stroke-linejoin="round"/>
<path d="M1284.27 784.843C1284.27 784.843 885.881 753.107 893.692 674.063C901.504 595.018 1287.16 569.522 1287.16 569.522" stroke="#FCF2EB" stroke-width="18" stroke-linecap="round" stroke-linejoin="round"/>
<path d="M160.295 773.423C160.295 773.423 559.392 752.402 553.708 673.176C548.023 593.95 163.188 558.102 163.188 558.102M160.352 774.257L553.183 671.756L162.01 558.923" stroke="#FCF2EB" stroke-width="18" stroke-linecap="round" stroke-linejoin="round"/>
<path d="M1279.35 782.874L888.147 674.335L1281.01 567.539" stroke="#FCF2EB" stroke-width="18" stroke-linecap="round" stroke-linejoin="round"/>
<path d="M310.312 181.717C308.371 178.058 303.831 176.664 300.172 178.605C296.512 180.545 295.119 185.085 297.06 188.745L310.312 181.717ZM363.713 143.894C360.535 141.237 355.805 141.658 353.148 144.836C350.491 148.013 350.912 152.743 354.089 155.401L363.713 143.894ZM303.686 185.231C297.06 188.745 297.061 188.748 297.063 188.751C297.064 188.752 297.065 188.755 297.067 188.758C297.069 188.763 297.073 188.769 297.076 188.775C297.083 188.788 297.091 188.803 297.1 188.821C297.119 188.856 297.144 188.901 297.174 188.955C297.233 189.064 297.315 189.21 297.417 189.39C297.622 189.75 297.913 190.248 298.288 190.857C299.036 192.072 300.127 193.743 301.546 195.654C304.353 199.436 308.59 204.357 314.163 208.503C319.751 212.66 326.957 216.237 335.561 216.786C344.278 217.343 353.617 214.737 363.239 207.913L354.563 195.677C347.314 200.817 341.315 202.123 336.516 201.817C331.604 201.503 327.115 199.443 323.117 196.468C319.103 193.482 315.863 189.776 313.59 186.713C312.468 185.202 311.618 183.897 311.06 182.991C310.782 182.539 310.579 182.191 310.453 181.969C310.39 181.859 310.346 181.78 310.323 181.737C310.311 181.715 310.304 181.703 310.302 181.699C310.301 181.698 310.301 181.698 310.303 181.701C310.304 181.703 310.305 181.705 310.306 181.707C310.307 181.709 310.308 181.711 310.309 181.712C310.31 181.714 310.312 181.717 303.686 185.231ZM363.239 207.913C372.744 201.174 378.258 193.563 380.389 185.462C382.507 177.415 381.017 169.912 378.47 163.846C375.941 157.823 372.235 152.865 369.296 149.498C367.805 147.791 366.458 146.431 365.466 145.484C364.968 145.009 364.557 144.634 364.257 144.367C364.107 144.233 363.984 144.127 363.893 144.048C363.847 144.008 363.809 143.975 363.779 143.95C363.763 143.937 363.75 143.926 363.739 143.917C363.734 143.912 363.729 143.908 363.725 143.904C363.722 143.902 363.719 143.9 363.718 143.899C363.715 143.897 363.713 143.894 358.901 149.647C354.089 155.401 354.087 155.399 354.085 155.397C354.084 155.396 354.082 155.394 354.081 155.393C354.078 155.391 354.076 155.39 354.075 155.388C354.072 155.386 354.071 155.385 354.072 155.386C354.074 155.388 354.084 155.396 354.101 155.411C354.135 155.44 354.198 155.495 354.287 155.574C354.465 155.732 354.745 155.987 355.104 156.33C355.826 157.019 356.851 158.051 357.996 159.363C360.33 162.036 362.95 165.629 364.639 169.652C366.31 173.632 366.929 177.671 365.883 181.645C364.852 185.564 361.93 190.454 354.563 195.677L363.239 207.913Z" fill="#FCF2EB"/>
<path d="M148.905 355.939C145.911 353.077 141.163 353.184 138.301 356.178C135.439 359.172 135.546 363.92 138.54 366.782L148.905 355.939ZM187.679 303.225C183.827 301.703 179.47 303.593 177.948 307.445C176.427 311.298 178.316 315.654 182.169 317.176L187.679 303.225ZM143.722 361.36C138.54 366.782 138.542 366.784 138.545 366.787C138.546 366.788 138.549 366.79 138.551 366.792C138.555 366.796 138.56 366.801 138.565 366.806C138.576 366.816 138.588 366.828 138.603 366.841C138.632 366.869 138.669 366.904 138.715 366.946C138.805 367.03 138.928 367.143 139.083 367.282C139.39 367.559 139.823 367.94 140.371 368.4C141.463 369.317 143.025 370.56 144.973 371.927C148.829 374.633 154.4 377.969 160.995 380.149C167.607 382.336 175.573 383.461 183.912 381.273C192.362 379.056 200.404 373.642 207.389 364.136L195.301 355.255C190.039 362.416 184.756 365.544 180.105 366.764C175.344 368.014 170.435 367.472 165.703 365.908C160.954 364.337 156.712 361.84 153.59 359.649C152.049 358.568 150.831 357.597 150.017 356.913C149.61 356.571 149.307 356.304 149.118 356.134C149.024 356.049 148.958 355.988 148.922 355.954C148.904 355.938 148.893 355.928 148.89 355.925C148.889 355.924 148.889 355.924 148.892 355.926C148.893 355.928 148.895 355.929 148.897 355.931C148.898 355.932 148.9 355.934 148.9 355.935C148.902 355.937 148.905 355.939 143.722 361.36ZM207.389 364.136C214.288 354.746 217.124 345.787 216.597 337.426C216.073 329.122 212.296 322.47 207.968 317.514C203.671 312.594 198.593 309.055 194.743 306.786C192.79 305.634 191.083 304.768 189.843 304.181C189.222 303.887 188.713 303.661 188.344 303.502C188.16 303.422 188.01 303.36 187.898 303.313C187.842 303.29 187.796 303.272 187.759 303.257C187.741 303.249 187.725 303.243 187.712 303.238C187.705 303.235 187.699 303.233 187.693 303.23C187.691 303.229 187.687 303.228 187.686 303.227C187.682 303.226 187.679 303.225 184.924 310.2C182.169 317.176 182.166 317.175 182.163 317.174C182.162 317.173 182.159 317.172 182.158 317.172C182.155 317.171 182.153 317.17 182.151 317.169C182.148 317.168 182.147 317.167 182.148 317.168C182.15 317.169 182.162 317.173 182.183 317.182C182.224 317.199 182.301 317.231 182.41 317.278C182.629 317.372 182.975 317.526 183.425 317.739C184.327 318.166 185.625 318.822 187.125 319.707C190.181 321.509 193.8 324.094 196.67 327.381C199.509 330.632 201.368 334.27 201.627 338.371C201.882 342.416 200.648 347.977 195.301 355.255L207.389 364.136Z" fill="#FCF2EB"/>
<path d="M1140.31 1201.74C1142.17 1205.44 1146.68 1206.92 1150.38 1205.05C1154.08 1203.19 1155.56 1198.67 1153.7 1194.98L1140.31 1201.74ZM1086.16 1238.48C1089.28 1241.2 1094.02 1240.88 1096.74 1237.75C1099.46 1234.63 1099.13 1229.89 1096.01 1227.17L1086.16 1238.48ZM1147 1198.36C1153.7 1194.98 1153.69 1194.97 1153.69 1194.97C1153.69 1194.97 1153.69 1194.97 1153.69 1194.96C1153.69 1194.96 1153.68 1194.95 1153.68 1194.95C1153.67 1194.93 1153.67 1194.92 1153.66 1194.9C1153.64 1194.86 1153.61 1194.82 1153.59 1194.76C1153.53 1194.65 1153.45 1194.51 1153.35 1194.32C1153.15 1193.96 1152.87 1193.46 1152.51 1192.84C1151.79 1191.61 1150.73 1189.92 1149.35 1187.98C1146.62 1184.14 1142.48 1179.14 1136.99 1174.88C1131.49 1170.61 1124.36 1166.89 1115.76 1166.17C1107.06 1165.44 1097.67 1167.86 1087.91 1174.49L1096.34 1186.89C1103.69 1181.9 1109.72 1180.72 1114.51 1181.12C1119.41 1181.53 1123.86 1183.68 1127.8 1186.73C1131.75 1189.8 1134.92 1193.57 1137.13 1196.68C1138.22 1198.21 1139.04 1199.53 1139.58 1200.45C1139.85 1200.91 1140.05 1201.26 1140.17 1201.48C1140.23 1201.59 1140.27 1201.67 1140.29 1201.72C1140.31 1201.74 1140.31 1201.75 1140.31 1201.76C1140.32 1201.76 1140.32 1201.76 1140.31 1201.75C1140.31 1201.75 1140.31 1201.75 1140.31 1201.75C1140.31 1201.75 1140.31 1201.74 1140.31 1201.74C1140.31 1201.74 1140.31 1201.74 1147 1198.36ZM1087.91 1174.49C1078.28 1181.03 1072.61 1188.53 1070.32 1196.59C1068.04 1204.59 1069.38 1212.12 1071.8 1218.24C1074.21 1224.31 1077.82 1229.34 1080.69 1232.77C1082.14 1234.51 1083.46 1235.89 1084.44 1236.86C1084.92 1237.34 1085.33 1237.73 1085.62 1238C1085.77 1238.14 1085.89 1238.25 1085.98 1238.33C1086.03 1238.37 1086.06 1238.4 1086.09 1238.43C1086.11 1238.44 1086.12 1238.45 1086.13 1238.46C1086.14 1238.46 1086.14 1238.47 1086.15 1238.47C1086.15 1238.47 1086.15 1238.48 1086.15 1238.48C1086.15 1238.48 1086.16 1238.48 1091.08 1232.83C1096.01 1227.17 1096.01 1227.17 1096.01 1227.18C1096.01 1227.18 1096.02 1227.18 1096.02 1227.18C1096.02 1227.18 1096.02 1227.18 1096.02 1227.18C1096.03 1227.19 1096.03 1227.19 1096.03 1227.19C1096.02 1227.18 1096.01 1227.18 1096 1227.16C1095.96 1227.13 1095.9 1227.08 1095.82 1226.99C1095.64 1226.83 1095.37 1226.57 1095.01 1226.22C1094.31 1225.52 1093.3 1224.47 1092.18 1223.13C1089.9 1220.41 1087.36 1216.77 1085.75 1212.71C1084.16 1208.7 1083.62 1204.65 1084.74 1200.7C1085.85 1196.8 1088.87 1191.97 1096.34 1186.89L1087.91 1174.49Z" fill="#FCF2EB"/>
<path d="M1305.17 1030.78C1308.11 1033.71 1312.86 1033.69 1315.78 1030.76C1318.7 1027.82 1318.69 1023.07 1315.75 1020.15L1305.17 1030.78ZM1265.35 1082.71C1269.17 1084.31 1273.56 1082.51 1275.16 1078.69C1276.76 1074.87 1274.96 1070.47 1271.14 1068.87L1265.35 1082.71ZM1310.46 1025.47C1315.75 1020.15 1315.75 1020.15 1315.75 1020.15C1315.75 1020.15 1315.74 1020.14 1315.74 1020.14C1315.74 1020.14 1315.73 1020.13 1315.73 1020.13C1315.72 1020.12 1315.7 1020.11 1315.69 1020.09C1315.66 1020.06 1315.62 1020.03 1315.58 1019.98C1315.49 1019.9 1315.37 1019.78 1315.22 1019.64C1314.92 1019.36 1314.49 1018.97 1313.95 1018.5C1312.88 1017.56 1311.34 1016.28 1309.42 1014.88C1305.62 1012.1 1300.12 1008.65 1293.57 1006.34C1287 1004.02 1279.06 1002.73 1270.68 1004.75C1262.19 1006.8 1254.04 1012.05 1246.86 1021.42L1258.77 1030.54C1264.17 1023.49 1269.52 1020.46 1274.19 1019.34C1278.98 1018.18 1283.88 1018.82 1288.58 1020.48C1293.29 1022.15 1297.48 1024.73 1300.56 1026.98C1302.08 1028.09 1303.28 1029.09 1304.08 1029.79C1304.48 1030.14 1304.78 1030.41 1304.96 1030.59C1305.05 1030.67 1305.12 1030.73 1305.15 1030.77C1305.17 1030.79 1305.18 1030.8 1305.19 1030.8C1305.19 1030.8 1305.19 1030.8 1305.18 1030.8C1305.18 1030.8 1305.18 1030.79 1305.18 1030.79C1305.18 1030.79 1305.18 1030.79 1305.18 1030.79C1305.17 1030.79 1305.17 1030.78 1310.46 1025.47ZM1246.86 1021.42C1239.78 1030.67 1236.76 1039.57 1237.12 1047.94C1237.48 1056.25 1241.12 1062.98 1245.35 1068.02C1249.55 1073.02 1254.55 1076.66 1258.36 1079.01C1260.29 1080.2 1261.98 1081.1 1263.2 1081.71C1263.82 1082.02 1264.32 1082.26 1264.69 1082.42C1264.87 1082.5 1265.02 1082.57 1265.13 1082.62C1265.19 1082.64 1265.23 1082.66 1265.27 1082.68C1265.29 1082.69 1265.3 1082.69 1265.32 1082.7C1265.32 1082.7 1265.33 1082.7 1265.33 1082.71C1265.34 1082.71 1265.34 1082.71 1265.34 1082.71C1265.35 1082.71 1265.35 1082.71 1268.24 1075.79C1271.14 1068.87 1271.14 1068.87 1271.14 1068.88C1271.14 1068.88 1271.15 1068.88 1271.15 1068.88C1271.15 1068.88 1271.15 1068.88 1271.15 1068.88C1271.16 1068.88 1271.16 1068.88 1271.16 1068.88C1271.16 1068.88 1271.14 1068.88 1271.12 1068.87C1271.08 1068.85 1271.01 1068.82 1270.9 1068.77C1270.68 1068.67 1270.34 1068.51 1269.89 1068.29C1269 1067.84 1267.72 1067.16 1266.23 1066.24C1263.21 1064.38 1259.65 1061.72 1256.84 1058.38C1254.07 1055.07 1252.28 1051.4 1252.11 1047.29C1251.93 1043.24 1253.28 1037.71 1258.77 1030.54L1246.86 1021.42Z" fill="#FCF2EB"/>
<path d="M75.6115 596.317C71.685 594.998 67.4327 597.111 66.1136 601.038C64.7946 604.964 66.9083 609.217 70.8349 610.536L75.6115 596.317ZM88.3187 532.124C84.1847 532.383 81.0434 535.944 81.3025 540.078C81.5616 544.212 85.1229 547.353 89.2569 547.094L88.3187 532.124ZM73.2232 603.426C70.8349 610.536 70.8381 610.537 70.8416 610.538C70.8429 610.539 70.8466 610.54 70.8493 610.541C70.8548 610.543 70.861 610.545 70.8678 610.547C70.8815 610.551 70.8979 610.557 70.917 610.563C70.9551 610.576 71.0038 610.591 71.0628 610.61C71.1808 610.648 71.3403 610.698 71.5386 610.758C71.9352 610.878 72.4888 611.039 73.1797 611.223C74.5586 611.589 76.5005 612.051 78.8449 612.461C83.4844 613.272 89.9455 613.925 96.8416 613.098C103.757 612.268 111.446 609.902 118.066 604.379C124.773 598.782 129.754 590.465 132.038 578.892L117.322 575.987C115.601 584.705 112.147 589.781 108.456 592.862C104.676 596.015 100.002 597.611 95.054 598.205C90.0872 598.801 85.186 598.342 81.4289 597.685C79.5749 597.361 78.06 596.999 77.0317 596.726C76.5189 596.589 76.1313 596.476 75.8875 596.402C75.7657 596.366 75.6802 596.339 75.6333 596.324C75.6099 596.316 75.5962 596.312 75.5924 596.31C75.5906 596.31 75.5912 596.31 75.5944 596.311C75.5959 596.312 75.5982 596.312 75.601 596.313C75.6024 596.314 75.6051 596.315 75.6058 596.315C75.6086 596.316 75.6115 596.317 73.2232 603.426ZM132.038 578.892C134.295 567.461 133.056 558.145 129.027 550.8C125.024 543.505 118.779 539.088 112.756 536.44C106.776 533.811 100.675 532.765 96.2263 532.346C93.9693 532.133 92.0559 532.075 90.6841 532.07C89.9965 532.068 89.4399 532.079 89.0386 532.092C88.8379 532.098 88.6755 532.105 88.5547 532.111C88.4942 532.114 88.4441 532.116 88.4046 532.118C88.3849 532.12 88.3679 532.121 88.3535 532.121C88.3464 532.122 88.3399 532.122 88.3341 532.123C88.3312 532.123 88.3273 532.123 88.3259 532.123C88.3222 532.123 88.3187 532.124 88.7878 539.609C89.2569 547.094 89.2538 547.094 89.2508 547.095C89.25 547.095 89.2472 547.095 89.2456 547.095C89.2425 547.095 89.24 547.095 89.2381 547.095C89.2344 547.096 89.2332 547.096 89.2346 547.095C89.2373 547.095 89.25 547.095 89.2724 547.094C89.3172 547.091 89.4004 547.088 89.5192 547.084C89.7571 547.076 90.136 547.068 90.6331 547.07C91.631 547.073 93.085 547.117 94.8187 547.28C98.3509 547.613 102.725 548.416 106.72 550.172C110.671 551.909 113.9 554.413 115.876 558.015C117.826 561.569 119.071 567.127 117.322 575.987L132.038 578.892Z" fill="#FCF2EB"/>
<path d="M78.4325 833.798C74.2904 833.783 70.92 837.128 70.9045 841.27C70.889 845.412 74.2342 848.782 78.3763 848.798L78.4325 833.798ZM70.2792 768.869C66.4371 770.417 64.5771 774.786 66.1248 778.628C67.6724 782.47 72.0418 784.33 75.8839 782.783L70.2792 768.869ZM78.4044 841.298C78.3763 848.798 78.3798 848.798 78.3834 848.798C78.3849 848.798 78.3887 848.798 78.3916 848.798C78.3974 848.798 78.4039 848.798 78.4111 848.798C78.4256 848.798 78.4428 848.798 78.4629 848.798C78.5029 848.798 78.5542 848.797 78.6161 848.797C78.74 848.795 78.9071 848.793 79.1143 848.787C79.5285 848.776 80.1046 848.755 80.8181 848.711C82.2423 848.625 84.2308 848.452 86.585 848.102C91.2439 847.412 97.5821 845.997 103.867 843.04C110.169 840.075 116.722 835.408 121.266 828.082C125.869 820.658 127.978 811.195 126.502 799.491L111.619 801.368C112.731 810.185 111.052 816.09 108.518 820.176C105.924 824.36 101.99 827.346 97.4803 829.468C92.9539 831.597 88.1576 832.705 84.3847 833.265C82.523 833.541 80.9712 833.674 79.9092 833.739C79.3796 833.771 78.9761 833.786 78.7214 833.792C78.5942 833.796 78.5046 833.797 78.4553 833.798C78.4308 833.798 78.4163 833.798 78.4124 833.798C78.4104 833.798 78.4111 833.798 78.4144 833.798C78.4161 833.798 78.4184 833.798 78.4214 833.798C78.4229 833.798 78.4257 833.798 78.4264 833.798C78.4294 833.798 78.4325 833.798 78.4044 841.298ZM126.502 799.491C125.044 787.931 120.934 779.479 114.798 773.777C108.702 768.113 101.383 765.887 94.8328 765.271C88.3292 764.659 82.2095 765.587 77.8546 766.59C75.6454 767.099 73.8109 767.646 72.5074 768.073C71.854 768.288 71.3293 768.474 70.9525 768.612C70.764 768.682 70.6121 768.739 70.4992 768.783C70.4427 768.804 70.3959 768.823 70.3592 768.837C70.3408 768.845 70.325 768.851 70.3116 768.856C70.3049 768.859 70.2989 768.861 70.2935 768.863C70.2908 768.864 70.2872 768.866 70.2859 768.866C70.2825 768.868 70.2792 768.869 73.0816 775.826C75.8839 782.783 75.8809 782.784 75.8782 782.785C75.8774 782.785 75.8748 782.786 75.8733 782.787C75.8704 782.788 75.8681 782.789 75.8664 782.79C75.8629 782.791 75.8618 782.792 75.8631 782.791C75.8656 782.79 75.8775 782.785 75.8984 782.777C75.9402 782.761 76.018 782.731 76.1296 782.69C76.353 782.608 76.71 782.481 77.1824 782.326C78.1305 782.015 79.5242 781.598 81.2212 781.208C84.6785 780.411 89.083 779.796 93.4272 780.205C97.7247 780.609 101.577 781.969 104.588 784.766C107.557 787.525 110.489 792.408 111.619 801.368L126.502 799.491Z" fill="#FCF2EB"/>
<path d="M1347.49 771.982C1351.39 773.38 1355.68 771.351 1357.08 767.452C1358.48 763.553 1356.45 759.259 1352.55 757.862L1347.49 771.982ZM1333.5 835.908C1337.64 835.732 1340.85 832.234 1340.67 828.096C1340.5 823.957 1337 820.745 1332.86 820.921L1333.5 835.908ZM1350.02 764.922C1352.55 757.862 1352.55 757.86 1352.54 757.859C1352.54 757.859 1352.54 757.857 1352.54 757.856C1352.53 757.855 1352.52 757.852 1352.52 757.85C1352.5 757.845 1352.49 757.839 1352.47 757.833C1352.43 757.819 1352.38 757.803 1352.32 757.783C1352.21 757.742 1352.05 757.689 1351.85 757.625C1351.46 757.497 1350.91 757.325 1350.22 757.128C1348.85 756.734 1346.92 756.234 1344.58 755.777C1339.96 754.873 1333.51 754.09 1326.6 754.779C1319.67 755.471 1311.93 757.681 1305.21 763.071C1298.39 768.532 1293.24 776.748 1290.73 788.273L1305.38 791.472C1307.28 782.79 1310.83 777.784 1314.58 774.778C1318.43 771.701 1323.13 770.2 1328.09 769.705C1333.07 769.209 1337.96 769.766 1341.7 770.498C1343.55 770.859 1345.06 771.251 1346.08 771.545C1346.59 771.691 1346.97 771.812 1347.22 771.891C1347.34 771.93 1347.42 771.959 1347.47 771.975C1347.49 771.983 1347.51 771.988 1347.51 771.989C1347.51 771.99 1347.51 771.989 1347.51 771.988C1347.51 771.988 1347.5 771.987 1347.5 771.986C1347.5 771.985 1347.5 771.984 1347.5 771.984C1347.49 771.983 1347.49 771.982 1350.02 764.922ZM1290.73 788.273C1288.24 799.657 1289.29 808.996 1293.17 816.419C1297.03 823.793 1303.18 828.335 1309.15 831.103C1315.08 833.851 1321.16 835.018 1325.6 835.527C1327.85 835.785 1329.76 835.882 1331.13 835.914C1331.82 835.93 1332.38 835.93 1332.78 835.925C1332.98 835.923 1333.14 835.919 1333.26 835.916C1333.32 835.914 1333.37 835.913 1333.41 835.911C1333.43 835.91 1333.45 835.91 1333.46 835.909C1333.47 835.909 1333.48 835.909 1333.48 835.909C1333.49 835.908 1333.49 835.908 1333.49 835.908C1333.5 835.908 1333.5 835.908 1333.18 828.415C1332.86 820.921 1332.86 820.921 1332.87 820.921C1332.87 820.921 1332.87 820.921 1332.87 820.921C1332.88 820.921 1332.88 820.921 1332.88 820.921C1332.88 820.921 1332.88 820.92 1332.88 820.921C1332.88 820.921 1332.87 820.921 1332.85 820.922C1332.8 820.923 1332.72 820.925 1332.6 820.926C1332.36 820.929 1331.98 820.93 1331.48 820.918C1330.49 820.895 1329.03 820.822 1327.3 820.624C1323.78 820.221 1319.42 819.33 1315.46 817.495C1311.55 815.679 1308.37 813.111 1306.47 809.469C1304.59 805.877 1303.45 800.295 1305.38 791.472L1290.73 788.273Z" fill="#FCF2EB"/>
<path d="M1349.43 534.492C1353.57 534.59 1357.01 531.313 1357.1 527.172C1357.2 523.031 1353.93 519.594 1349.78 519.496L1349.43 534.492ZM1356.28 599.571C1360.15 598.1 1362.1 593.769 1360.63 589.897C1359.16 586.025 1354.83 584.077 1350.95 585.548L1356.28 599.571ZM1349.61 526.994C1349.78 519.496 1349.78 519.496 1349.78 519.496C1349.78 519.496 1349.77 519.496 1349.77 519.495C1349.76 519.495 1349.76 519.495 1349.75 519.495C1349.74 519.495 1349.72 519.494 1349.7 519.494C1349.66 519.493 1349.61 519.493 1349.54 519.492C1349.42 519.491 1349.25 519.49 1349.05 519.492C1348.63 519.494 1348.06 519.504 1347.34 519.533C1345.92 519.591 1343.92 519.725 1341.56 520.027C1336.89 520.624 1330.53 521.911 1324.18 524.742C1317.82 527.58 1311.18 532.114 1306.49 539.349C1301.74 546.679 1299.44 556.098 1300.68 567.828L1315.6 566.25C1314.66 557.413 1316.46 551.542 1319.08 547.508C1321.75 543.377 1325.75 540.471 1330.3 538.44C1334.87 536.401 1339.68 535.389 1343.47 534.906C1345.33 534.667 1346.89 534.564 1347.95 534.521C1348.48 534.5 1348.88 534.493 1349.14 534.491C1349.27 534.491 1349.36 534.491 1349.4 534.492C1349.43 534.492 1349.44 534.492 1349.45 534.492C1349.45 534.492 1349.45 534.492 1349.45 534.492C1349.44 534.492 1349.44 534.492 1349.44 534.492C1349.44 534.492 1349.43 534.492 1349.43 534.492C1349.43 534.492 1349.43 534.492 1349.61 526.994ZM1300.68 567.828C1301.91 579.415 1305.85 587.948 1311.87 593.772C1317.85 599.557 1325.12 601.929 1331.66 602.676C1338.15 603.419 1344.28 602.613 1348.66 601.697C1350.88 601.233 1352.72 600.723 1354.03 600.322C1354.69 600.121 1355.22 599.945 1355.6 599.814C1355.79 599.749 1355.94 599.694 1356.06 599.653C1356.11 599.632 1356.16 599.615 1356.2 599.601C1356.22 599.594 1356.23 599.588 1356.25 599.583C1356.25 599.581 1356.26 599.578 1356.26 599.576C1356.27 599.575 1356.27 599.574 1356.27 599.573C1356.28 599.572 1356.28 599.571 1353.62 592.559C1350.95 585.548 1350.96 585.547 1350.96 585.546C1350.96 585.545 1350.96 585.544 1350.96 585.544C1350.97 585.543 1350.97 585.542 1350.97 585.541C1350.97 585.54 1350.98 585.539 1350.97 585.54C1350.97 585.541 1350.96 585.545 1350.94 585.553C1350.9 585.568 1350.82 585.596 1350.71 585.635C1350.48 585.713 1350.12 585.833 1349.65 585.978C1348.69 586.27 1347.29 586.659 1345.59 587.016C1342.11 587.742 1337.7 588.269 1333.36 587.774C1329.07 587.283 1325.25 585.846 1322.3 582.99C1319.38 580.172 1316.55 575.231 1315.6 566.25L1300.68 567.828Z" fill="#FCF2EB"/>
<path d="M800.36 46.2857C801.684 42.3609 799.576 38.1058 795.651 36.7816C791.726 35.4575 787.471 37.5657 786.147 41.4904L800.36 46.2857ZM864.536 59.0769C864.283 54.9425 860.725 51.7966 856.591 52.0503C852.457 52.3039 849.311 55.8611 849.564 59.9955L864.536 59.0769ZM793.253 43.8881C786.147 41.4904 786.146 41.4937 786.145 41.4972C786.144 41.4985 786.143 41.5021 786.142 41.5049C786.14 41.5104 786.138 41.5166 786.136 41.5234C786.131 41.5371 786.126 41.5535 786.12 41.5725C786.107 41.6106 786.091 41.6593 786.072 41.7183C786.034 41.8363 785.984 41.9956 785.924 42.1939C785.803 42.5903 785.642 43.1437 785.457 43.8343C785.089 45.2128 784.625 47.1541 784.212 49.4979C783.394 54.1364 782.732 60.5966 783.551 67.4939C784.372 74.4098 786.727 82.1025 792.242 88.7293C797.83 95.4439 806.141 100.436 817.711 102.735L820.635 88.0229C811.919 86.2907 806.847 82.8302 803.772 79.1343C800.623 75.3506 799.034 70.6745 798.446 65.7256C797.857 60.7581 798.322 55.8575 798.984 52.1013C799.311 50.2478 799.674 48.7333 799.949 47.7053C800.086 47.1928 800.2 46.8053 800.274 46.5616C800.311 46.4398 800.338 46.3544 800.353 46.3075C800.36 46.2841 800.365 46.2704 800.366 46.2666C800.367 46.2647 800.367 46.2654 800.365 46.2685C800.365 46.2701 800.364 46.2723 800.363 46.2752C800.363 46.2766 800.362 46.2793 800.362 46.28C800.361 46.2827 800.36 46.2857 793.253 43.8881ZM817.711 102.735C829.139 105.006 838.457 103.78 845.806 99.7605C853.107 95.7676 857.532 89.5281 860.188 83.5087C862.824 77.5322 863.878 71.4328 864.303 66.9841C864.519 64.7274 864.58 62.8141 864.587 61.4423C864.59 60.7547 864.579 60.1981 864.567 59.7968C864.561 59.596 864.554 59.4337 864.549 59.3128C864.546 59.2524 864.543 59.2022 864.541 59.1628C864.54 59.1431 864.539 59.126 864.538 59.1117C864.538 59.1045 864.538 59.098 864.537 59.0922C864.537 59.0893 864.537 59.0855 864.537 59.084C864.536 59.0804 864.536 59.0769 857.05 59.5362C849.564 59.9955 849.564 59.9923 849.564 59.9893C849.564 59.9886 849.564 59.9857 849.564 59.9842C849.564 59.981 849.563 59.9785 849.563 59.9767C849.563 59.973 849.563 59.9718 849.563 59.9732C849.563 59.9759 849.564 59.9886 849.565 60.0109C849.567 60.0557 849.571 60.1389 849.574 60.2578C849.582 60.4957 849.589 60.8746 849.587 61.3717C849.582 62.3695 849.537 63.8235 849.371 65.557C849.034 69.0888 848.225 73.4619 846.464 77.4541C844.722 81.4033 842.214 84.6285 838.608 86.6002C835.052 88.5451 829.493 89.7833 820.635 88.0229L817.711 102.735Z" fill="#FCF2EB"/>
<path d="M562.875 48.7964C562.896 44.6543 559.555 41.2795 555.413 41.2586C551.271 41.2377 547.896 44.5786 547.875 48.7206L562.875 48.7964ZM627.815 40.7281C626.272 36.8839 621.905 35.0182 618.061 36.5609C614.217 38.1035 612.351 42.4704 613.894 46.3145L627.815 40.7281ZM555.375 48.7585C547.875 48.7206 547.875 48.7241 547.875 48.7277C547.875 48.7292 547.875 48.733 547.875 48.7359C547.875 48.7417 547.875 48.7482 547.875 48.7554C547.875 48.7699 547.875 48.7871 547.875 48.8072C547.875 48.8472 547.875 48.8985 547.876 48.9604C547.877 49.0843 547.88 49.2514 547.885 49.4586C547.895 49.8728 547.916 50.4489 547.959 51.1625C548.043 52.5868 548.214 54.5755 548.56 56.9302C549.245 61.59 550.651 67.93 553.6 74.2186C556.557 80.5242 561.214 87.0839 568.535 91.637C575.953 96.2505 585.413 98.3712 597.119 96.9104L595.261 82.0258C586.444 83.1262 580.54 81.4388 576.457 78.8995C572.277 76.2998 569.297 72.362 567.181 67.8499C565.057 63.3207 563.955 58.5229 563.401 54.7493C563.127 52.8873 562.995 51.3353 562.932 50.2732C562.901 49.7436 562.887 49.34 562.88 49.0853C562.877 48.9581 562.876 48.8685 562.875 48.8193C562.875 48.7947 562.875 48.7802 562.875 48.7763C562.875 48.7743 562.875 48.775 562.875 48.7783C562.875 48.78 562.875 48.7823 562.875 48.7853C562.875 48.7868 562.875 48.7896 562.875 48.7904C562.875 48.7933 562.875 48.7964 555.375 48.7585ZM597.119 96.9104C608.681 95.4675 617.138 91.3694 622.848 85.24C628.52 79.1514 630.756 71.8358 631.381 65.2863C632.001 58.7836 631.081 52.6627 630.083 48.3064C629.578 46.0966 629.033 44.2614 628.607 42.9573C628.394 42.3036 628.209 41.7787 628.071 41.4017C628.002 41.2131 627.944 41.0611 627.901 40.9481C627.879 40.8916 627.861 40.8449 627.846 40.8081C627.839 40.7897 627.833 40.7738 627.827 40.7605C627.825 40.7538 627.822 40.7478 627.82 40.7424C627.819 40.7397 627.818 40.7361 627.817 40.7348C627.816 40.7313 627.815 40.7281 620.854 43.5213C613.894 46.3145 613.892 46.3116 613.891 46.3088C613.891 46.3081 613.89 46.3054 613.889 46.304C613.888 46.3011 613.887 46.2987 613.887 46.297C613.885 46.2936 613.885 46.2925 613.885 46.2937C613.886 46.2963 613.891 46.3081 613.899 46.329C613.915 46.3709 613.945 46.4487 613.986 46.5604C614.067 46.7839 614.194 47.1411 614.348 47.6137C614.658 48.5622 615.073 49.9564 615.462 51.6539C616.253 55.1123 616.863 59.5176 616.449 63.8612C616.038 68.1581 614.673 72.0091 611.873 75.0157C609.11 77.9815 604.223 80.9075 595.261 82.0258L597.119 96.9104Z" fill="#FCF2EB"/>
<path d="M623.031 1317.93C621.628 1321.83 623.651 1326.13 627.548 1327.53C631.445 1328.93 635.742 1326.91 637.144 1323.01L623.031 1317.93ZM559.123 1303.86C559.294 1308 562.787 1311.21 566.926 1311.04C571.065 1310.87 574.281 1307.38 574.11 1303.24L559.123 1303.86ZM630.087 1320.47C637.144 1323.01 637.146 1323.01 637.147 1323.01C637.147 1323 637.149 1323 637.15 1323C637.152 1322.99 637.154 1322.99 637.156 1322.98C637.161 1322.97 637.167 1322.95 637.173 1322.93C637.187 1322.89 637.204 1322.84 637.224 1322.79C637.264 1322.67 637.317 1322.51 637.382 1322.31C637.51 1321.92 637.683 1321.37 637.881 1320.68C638.277 1319.31 638.78 1317.38 639.24 1315.05C640.15 1310.42 640.941 1303.98 640.261 1297.07C639.579 1290.14 637.378 1282.4 631.997 1275.66C626.545 1268.84 618.336 1263.68 606.814 1261.15L603.596 1275.8C612.275 1277.7 617.276 1281.27 620.277 1285.02C623.35 1288.87 624.845 1293.58 625.333 1298.54C625.823 1303.51 625.26 1308.4 624.522 1312.15C624.159 1313.99 623.765 1315.5 623.47 1316.52C623.323 1317.03 623.201 1317.42 623.122 1317.66C623.083 1317.78 623.054 1317.87 623.038 1317.91C623.03 1317.93 623.025 1317.95 623.024 1317.95C623.023 1317.95 623.023 1317.95 623.024 1317.95C623.025 1317.95 623.026 1317.95 623.027 1317.94C623.027 1317.94 623.028 1317.94 623.028 1317.94C623.029 1317.94 623.031 1317.93 630.087 1320.47ZM606.814 1261.15C595.434 1258.65 586.093 1259.69 578.665 1263.56C571.286 1267.4 566.736 1273.55 563.96 1279.52C561.204 1285.44 560.029 1291.52 559.514 1295.96C559.254 1298.21 559.154 1300.12 559.12 1301.49C559.103 1302.18 559.102 1302.74 559.107 1303.14C559.109 1303.34 559.112 1303.5 559.115 1303.62C559.117 1303.68 559.119 1303.73 559.12 1303.77C559.121 1303.79 559.121 1303.81 559.122 1303.82C559.122 1303.83 559.122 1303.84 559.123 1303.84C559.123 1303.85 559.123 1303.85 559.123 1303.85C559.123 1303.86 559.123 1303.86 566.617 1303.55C574.11 1303.24 574.111 1303.24 574.111 1303.25C574.111 1303.25 574.111 1303.25 574.111 1303.25C574.111 1303.25 574.111 1303.26 574.111 1303.26C574.111 1303.26 574.111 1303.26 574.111 1303.26C574.111 1303.26 574.111 1303.25 574.11 1303.22C574.109 1303.18 574.107 1303.1 574.106 1302.98C574.103 1302.74 574.103 1302.36 574.115 1301.86C574.14 1300.87 574.214 1299.41 574.415 1297.68C574.823 1294.16 575.719 1289.8 577.56 1285.85C579.381 1281.93 581.953 1278.76 585.597 1276.86C589.192 1274.99 594.775 1273.86 603.596 1275.8L606.814 1261.15Z" fill="#FCF2EB"/>
<path d="M860.518 1320.18C860.414 1324.32 863.687 1327.76 867.828 1327.87C871.968 1327.97 875.41 1324.7 875.513 1320.56L860.518 1320.18ZM795.43 1326.95C796.895 1330.82 801.224 1332.77 805.098 1331.31C808.972 1329.84 810.925 1325.52 809.46 1321.64L795.43 1326.95ZM868.016 1320.37C875.513 1320.56 875.514 1320.55 875.514 1320.55C875.514 1320.55 875.514 1320.55 875.514 1320.54C875.514 1320.54 875.514 1320.53 875.514 1320.52C875.515 1320.51 875.515 1320.49 875.515 1320.47C875.516 1320.43 875.517 1320.38 875.517 1320.32C875.519 1320.19 875.52 1320.03 875.519 1319.82C875.517 1319.41 875.507 1318.83 875.479 1318.12C875.423 1316.69 875.292 1314.7 874.993 1312.34C874.402 1307.66 873.123 1301.3 870.301 1294.95C867.471 1288.59 862.945 1281.94 855.717 1277.24C848.393 1272.48 838.977 1270.17 827.245 1271.39L828.804 1286.31C837.642 1285.39 843.511 1287.19 847.542 1289.81C851.669 1292.5 854.57 1296.49 856.595 1301.05C858.628 1305.62 859.633 1310.44 860.112 1314.22C860.348 1316.09 860.449 1317.64 860.491 1318.7C860.511 1319.23 860.518 1319.64 860.519 1319.89C860.519 1320.02 860.519 1320.11 860.518 1320.16C860.518 1320.18 860.518 1320.2 860.518 1320.2C860.518 1320.2 860.518 1320.2 860.518 1320.2C860.518 1320.2 860.518 1320.2 860.518 1320.19C860.518 1320.19 860.518 1320.19 860.518 1320.19C860.518 1320.18 860.518 1320.18 868.016 1320.37ZM827.245 1271.39C815.657 1272.6 807.119 1276.53 801.287 1282.54C795.494 1288.52 793.113 1295.79 792.357 1302.32C791.606 1308.81 792.404 1314.95 793.313 1319.33C793.775 1321.54 794.282 1323.39 794.682 1324.7C794.882 1325.36 795.057 1325.89 795.188 1326.27C795.253 1326.46 795.307 1326.61 795.348 1326.73C795.369 1326.78 795.386 1326.83 795.4 1326.87C795.407 1326.89 795.413 1326.9 795.418 1326.91C795.42 1326.92 795.423 1326.93 795.425 1326.93C795.426 1326.94 795.427 1326.94 795.427 1326.94C795.429 1326.94 795.43 1326.95 802.445 1324.29C809.46 1321.64 809.461 1321.64 809.462 1321.65C809.462 1321.65 809.463 1321.65 809.464 1321.65C809.465 1321.65 809.466 1321.66 809.467 1321.66C809.468 1321.66 809.468 1321.66 809.468 1321.66C809.467 1321.66 809.463 1321.65 809.455 1321.63C809.44 1321.58 809.412 1321.51 809.373 1321.39C809.296 1321.17 809.176 1320.81 809.031 1320.33C808.741 1319.38 808.354 1317.98 807.999 1316.27C807.277 1312.8 806.756 1308.38 807.257 1304.05C807.753 1299.76 809.195 1295.94 812.056 1292.99C814.877 1290.08 819.822 1287.25 828.804 1286.31L827.245 1271.39Z" fill="#FCF2EB"/>
<path d="M1244.53 322.009C1248.32 320.359 1250.07 315.941 1248.42 312.142C1246.77 308.342 1242.35 306.6 1238.55 308.251L1244.53 322.009ZM1278.08 378.189C1280.98 375.227 1280.93 370.479 1277.96 367.583C1275 364.686 1270.26 364.739 1267.36 367.7L1278.08 378.189ZM1241.54 315.13C1238.55 308.251 1238.55 308.252 1238.54 308.253C1238.54 308.254 1238.54 308.256 1238.53 308.257C1238.53 308.259 1238.52 308.262 1238.52 308.265C1238.5 308.27 1238.49 308.277 1238.47 308.285C1238.43 308.302 1238.39 308.323 1238.33 308.348C1238.22 308.399 1238.07 308.469 1237.88 308.557C1237.5 308.733 1236.98 308.985 1236.35 309.311C1235.08 309.963 1233.33 310.92 1231.31 312.186C1227.32 314.691 1222.09 318.533 1217.52 323.766C1212.94 329.014 1208.82 335.92 1207.6 344.455C1206.37 353.104 1208.24 362.616 1214.29 372.74L1227.17 365.041C1222.61 357.415 1221.77 351.332 1222.45 346.572C1223.14 341.698 1225.55 337.383 1228.82 333.628C1232.11 329.859 1236.06 326.917 1239.29 324.889C1240.88 323.888 1242.25 323.142 1243.2 322.656C1243.67 322.414 1244.03 322.238 1244.26 322.13C1244.38 322.076 1244.46 322.039 1244.5 322.018C1244.53 322.008 1244.54 322.002 1244.54 322.001C1244.55 322 1244.54 322 1244.54 322.002C1244.54 322.002 1244.54 322.003 1244.54 322.004C1244.53 322.005 1244.53 322.006 1244.53 322.006C1244.53 322.008 1244.53 322.009 1241.54 315.13ZM1214.29 372.74C1220.27 382.74 1227.43 388.828 1235.34 391.583C1243.2 394.32 1250.8 393.418 1257.04 391.35C1263.25 389.297 1268.48 385.988 1272.06 383.319C1273.88 381.966 1275.34 380.728 1276.36 379.813C1276.87 379.354 1277.28 378.973 1277.57 378.694C1277.71 378.555 1277.83 378.441 1277.92 378.356C1277.96 378.313 1277.99 378.278 1278.02 378.25C1278.04 378.236 1278.05 378.224 1278.06 378.213C1278.06 378.208 1278.07 378.204 1278.07 378.2C1278.07 378.197 1278.08 378.195 1278.08 378.194C1278.08 378.191 1278.08 378.189 1272.72 372.944C1267.36 367.7 1267.36 367.698 1267.36 367.696C1267.36 367.695 1267.37 367.693 1267.37 367.692C1267.37 367.69 1267.37 367.688 1267.37 367.686C1267.37 367.684 1267.38 367.683 1267.37 367.684C1267.37 367.686 1267.36 367.695 1267.35 367.711C1267.32 367.742 1267.26 367.801 1267.17 367.883C1267 368.048 1266.72 368.308 1266.35 368.64C1265.61 369.305 1264.5 370.247 1263.1 371.287C1260.26 373.405 1256.47 375.739 1252.33 377.11C1248.23 378.467 1244.16 378.769 1240.28 377.418C1236.45 376.085 1231.8 372.792 1227.17 365.041L1214.29 372.74Z" fill="#FCF2EB"/>
<path d="M1083.38 147.547C1086.46 144.785 1086.73 140.043 1083.96 136.957C1081.2 133.871 1076.46 133.608 1073.37 136.371L1083.38 147.547ZM1132.92 190.302C1134.73 186.58 1133.19 182.089 1129.47 180.273C1125.74 178.456 1121.25 180.001 1119.44 183.724L1132.92 190.302ZM1078.38 141.959C1073.37 136.371 1073.37 136.373 1073.37 136.376C1073.37 136.377 1073.36 136.379 1073.36 136.381C1073.36 136.385 1073.35 136.389 1073.35 136.394C1073.34 136.404 1073.32 136.415 1073.31 136.429C1073.28 136.456 1073.24 136.49 1073.2 136.532C1073.1 136.616 1072.98 136.73 1072.83 136.873C1072.53 137.159 1072.12 137.561 1071.62 138.071C1070.62 139.089 1069.26 140.549 1067.74 142.385C1064.75 146.018 1060.99 151.314 1058.3 157.719C1055.61 164.141 1053.87 171.996 1055.4 180.48C1056.95 189.076 1061.72 197.515 1070.66 205.217L1080.45 193.856C1073.72 188.054 1071.01 182.544 1070.16 177.812C1069.28 172.968 1070.21 168.116 1072.13 163.52C1074.07 158.907 1076.89 154.872 1079.31 151.93C1080.51 150.478 1081.58 149.339 1082.32 148.58C1082.69 148.202 1082.98 147.92 1083.17 147.745C1083.26 147.657 1083.32 147.596 1083.36 147.563C1083.38 147.546 1083.39 147.537 1083.39 147.534C1083.39 147.533 1083.39 147.533 1083.39 147.535C1083.39 147.536 1083.39 147.538 1083.39 147.54C1083.38 147.541 1083.38 147.543 1083.38 147.543C1083.38 147.545 1083.38 147.547 1078.38 141.959ZM1070.66 205.217C1079.48 212.825 1088.2 216.35 1096.57 216.474C1104.89 216.597 1111.82 213.348 1117.1 209.419C1122.33 205.518 1126.26 200.729 1128.82 197.068C1130.12 195.211 1131.11 193.576 1131.8 192.385C1132.14 191.789 1132.4 191.299 1132.59 190.944C1132.68 190.766 1132.76 190.622 1132.81 190.514C1132.84 190.46 1132.86 190.415 1132.88 190.379C1132.89 190.362 1132.9 190.346 1132.9 190.334C1132.91 190.327 1132.91 190.321 1132.91 190.316C1132.91 190.313 1132.91 190.31 1132.92 190.309C1132.92 190.305 1132.92 190.302 1126.18 187.013C1119.44 183.724 1119.44 183.721 1119.44 183.718C1119.44 183.718 1119.44 183.715 1119.44 183.714C1119.44 183.711 1119.45 183.709 1119.45 183.707C1119.45 183.704 1119.45 183.702 1119.45 183.704C1119.45 183.706 1119.44 183.718 1119.43 183.738C1119.41 183.778 1119.37 183.852 1119.32 183.957C1119.21 184.168 1119.03 184.501 1118.78 184.932C1118.28 185.798 1117.53 187.041 1116.53 188.468C1114.5 191.375 1111.64 194.782 1108.14 197.388C1104.67 199.966 1100.9 201.536 1096.79 201.475C1092.74 201.415 1087.29 199.753 1080.45 193.856L1070.66 205.217Z" fill="#FCF2EB"/>
</svg>
